<?xml version="1.0" encoding="UTF-8"?>
<svg xmlns="http://www.w3.org/2000/svg" viewBox="0 0 300 300">
  <defs>
    <style>
      .cls-1 {
        fill: #3cb504;
      }
    </style>
  </defs>
  <g id="Ebene_5" data-name="Ebene 5">
    <rect class="cls-1" x="115" y="240" width="25" height="25"/>
    <rect class="cls-1" x="35" y="160" width="25" height="25"/>
  </g>
  <g id="Ebene_4" data-name="Ebene 4">
    <polygon points="240 120 240 60 239.85 60 220 60 60.15 60 60.15 60.15 60 60.15 60 140 0 140 0 160 60 160 60 220 60 239.85 60 240 140 240 140 300 160 300 160 240 220 240 240 240 240 220 240 180 220 180 220 220 160 220 140 220 80 220 80 160 80 140 80 80 220 80 220 120 240 120"/>
  </g>
</svg>