<?xml version="1.0" encoding="UTF-8"?>
<svg xmlns="http://www.w3.org/2000/svg" viewBox="0 0 300 300">
  <defs>
    <style>
      .cls-1 {
        fill: #3cb504;
      }
    </style>
  </defs>
  <g id="Ebene_5" data-name="Ebene 5">
    <rect class="cls-1" x="115" y="249.54" width="25" height="25"/>
    <rect class="cls-1" x="160" y="249.54" width="25" height="25"/>
  </g>
  <g id="Ebene_3" data-name="Ebene 3">
    <path d="m300,140h-50.5c-5.02-50.53-47.65-90-99.5-90-55.23,0-100,44.77-100,100,0,51.85,39.47,94.49,90,99.5v50.5h20v-50.5c47.24-4.69,84.81-42.26,89.5-89.5h50.5v-20Zm-150,90c-44.11,0-80-35.89-80-80s35.89-80,80-80,80,35.89,80,80-35.89,80-80,80Z"/>
  </g>
</svg>