<?xml version="1.0" encoding="utf-8"?>
<!-- Generator: Adobe Illustrator 27.2.0, SVG Export Plug-In . SVG Version: 6.00 Build 0)  -->
<svg version="1.1" xmlns="http://www.w3.org/2000/svg" xmlns:xlink="http://www.w3.org/1999/xlink" x="0px" y="0px"
	 viewBox="0 0 300 300" style="enable-background:new 0 0 300 300;" xml:space="preserve">
<style type="text/css">
	.st0{fill:#3CB504;}
</style>
<g id="Ebene_1">
	<polygon points="-38.9,840 -178.9,840 -198.9,840 -338.9,840 -338.9,860 -198.9,860 -198.9,1000 -178.9,1000 -178.9,860 -38.9,860 
			"/>
	<polygon points="-38.9,490 -178.9,490 -198.9,490 -338.9,490 -338.9,510 -198.9,510 -198.9,650 -178.9,650 -178.9,510 -38.9,510 	
		"/>
	<polygon points="-38.9,140 -178.9,140 -198.9,140 -338.9,140 -338.9,160 -198.9,160 -198.9,300 -178.9,300 -178.9,160 -38.9,160 	
		"/>
	<rect x="0" y="140" width="300" height="20"/>
	<rect x="0" y="-210" width="300" height="20"/>
	<polygon points="-38.9,-210 -178.9,-210 -198.9,-210 -338.9,-210 -338.9,-190 -198.9,-190 -198.9,-50 -178.9,-50 -178.9,-190 
		-38.9,-190 	"/>
	<polygon points="-1438.9,1540 -1578.9,1540 -1578.9,1400 -1598.9,1400 -1598.9,1540 -1738.9,1540 -1738.9,1560 -1598.9,1560 
		-1598.9,1700 -1578.9,1700 -1578.9,1560 -1438.9,1560 	"/>
	<polygon points="-1438.9,1190 -1578.9,1190 -1578.9,1050 -1598.9,1050 -1598.9,1190 -1738.9,1190 -1738.9,1210 -1598.9,1210 
		-1598.9,1350 -1578.9,1350 -1578.9,1210 -1438.9,1210 	"/>
	<polygon points="-1438.9,840 -1578.9,840 -1578.9,700 -1598.9,700 -1598.9,840 -1738.9,840 -1738.9,860 -1598.9,860 -1598.9,1000 
		-1578.9,1000 -1578.9,860 -1438.9,860 	"/>
	<polygon points="-1438.9,490 -1578.9,490 -1578.9,350 -1598.9,350 -1598.9,490 -1738.9,490 -1738.9,510 -1598.9,510 -1598.9,650 
		-1578.9,650 -1578.9,510 -1438.9,510 	"/>
	<polygon points="-1438.9,140 -1578.9,140 -1578.9,0 -1598.9,0 -1598.9,140 -1738.9,140 -1738.9,160 -1598.9,160 -1598.9,300 
		-1578.9,300 -1578.9,160 -1438.9,160 	"/>
	<polygon points="-1438.9,-210 -1578.9,-210 -1578.9,-350 -1598.9,-350 -1598.9,-210 -1738.9,-210 -1738.9,-190 -1598.9,-190 
		-1598.9,-50 -1578.9,-50 -1578.9,-190 -1438.9,-190 	"/>
	<rect x="-1260.3" y="676.7" class="st0" width="25" height="25"/>
	<rect x="-1215.3" y="676.7" class="st0" width="25" height="25"/>
	<g>
		<path d="M287.3,66l-14.8,14.4h-2.8v-7h-27.5v-17h27.5v-7h2.8l14.8,14.4V66z M284.1,64.9l-11.3-11v5.3h-27.5v11.4h27.5V76
			L284.1,64.9z"/>
	</g>
	<g>
		<path d="M236.6,64.9h-18.3c-2.5,0-4.6-0.8-6.2-2.4c-1.6-1.6-2.5-3.7-2.7-6.4l0-0.9c0-2.9,0.8-5.3,2.4-7c1.6-1.7,3.8-2.6,6.6-2.7
			h18.3V49h-18.2c-1.9,0-3.5,0.5-4.5,1.6c-1.1,1.1-1.6,2.6-1.6,4.6c0,2,0.5,3.5,1.6,4.6c1.1,1.1,2.6,1.6,4.5,1.6h18.2V64.9z"/>
		<path d="M219.5,85.2c-3,0-5.5-0.7-7.3-2.1c-1.9-1.4-2.8-3.3-2.8-5.6c0-2.4,0.8-4.3,2.3-5.7H202v-3.4h27.6v3.1l-2.2,0.2
			c1.7,1.4,2.6,3.3,2.6,5.8c0,2.4-0.9,4.3-2.7,5.7c-1.8,1.4-4.3,2.1-7.5,2.1H219.5z M219.9,81.7c2.3,0,4-0.5,5.3-1.4
			c1.3-1,2-2.3,2-3.9c0-2.1-0.9-3.6-2.7-4.7h-9.5c-1.8,1-2.7,2.6-2.7,4.7c0,1.6,0.6,2.9,1.9,3.9C215.4,81.3,217.3,81.7,219.9,81.7z"
			/>
	</g>
	<g>
		<path d="M81.9,267.8H57.2v-7c0-2.1,0.5-4,1.4-5.7c0.9-1.6,2.3-2.9,4-3.8c1.8-0.9,3.8-1.4,6-1.4h1.6c2.3,0,4.4,0.4,6.1,1.3
			c1.8,0.9,3.1,2.2,4,3.8c0.9,1.7,1.4,3.6,1.4,5.8V267.8z M59.9,264.5h19.3v-3.4c0-2.5-0.8-4.5-2.3-5.9c-1.6-1.4-3.8-2.1-6.7-2.1
			h-1.4c-2.8,0-5,0.7-6.5,2c-1.6,1.3-2.3,3.2-2.4,5.6V264.5z"/>
		<path d="M72.6,247.9c-1.8,0-3.4-0.4-4.8-1.1c-1.4-0.7-2.5-1.7-3.3-2.9c-0.8-1.3-1.2-2.7-1.2-4.3c0-2.5,0.9-4.5,2.6-6.1
			c1.7-1.5,4-2.3,6.9-2.3h0.2c1.8,0,3.4,0.3,4.8,1c1.4,0.7,2.5,1.7,3.3,2.9c0.8,1.3,1.2,2.7,1.2,4.4c0,2.5-0.9,4.5-2.6,6
			c-1.7,1.5-4,2.3-6.9,2.3H72.6z M72.9,244.8c2,0,3.7-0.5,4.9-1.4c1.2-0.9,1.8-2.2,1.8-3.8c0-1.6-0.6-2.9-1.9-3.8
			c-1.2-0.9-3-1.4-5.2-1.4c-2,0-3.6,0.5-4.9,1.4c-1.2,1-1.9,2.2-1.9,3.8c0,1.5,0.6,2.8,1.8,3.7S70.6,244.8,72.9,244.8z"/>
		<path d="M77.6,212.6l-14-3.5V206l18.3,5.3v2.5L68,218.3l13.9,4.3v2.5l-18.3,5.3v-3.1l13.7-3.6l-13.7-4.3V217L77.6,212.6z"/>
		<path d="M63.6,201.4l2.3-0.1c-1.8-1.4-2.6-3.2-2.6-5.5c0-3.9,2.2-5.8,6.6-5.9h12.1v3.1H69.8c-1.3,0-2.3,0.3-2.9,0.9
			c-0.6,0.6-0.9,1.5-0.9,2.8c0,1,0.3,1.9,0.8,2.7c0.5,0.8,1.3,1.4,2.1,1.8h13.1v3.1H63.6V201.4z"/>
	</g>
	<g>
		<path d="M7.5,228.9l14.8-14.4h2.8v7h27.5v17H25.1v7h-2.8L7.5,231V228.9z M10.8,230l11.3,11v-5.3h27.5v-11.4H22.1v-5.4L10.8,230z"
			/>
	</g>
</g>
<g id="Ebene_5">
	<rect x="-1623.9" y="1560" class="st0" width="25" height="25"/>
	<rect x="-1578.9" y="1560" class="st0" width="25" height="25"/>
	<rect x="-1578.9" y="1515" class="st0" width="25" height="25"/>
	<rect x="-1623.9" y="1515" class="st0" width="25" height="25"/>
	<rect x="-1623.9" y="1210" class="st0" width="25" height="25"/>
	<rect x="-1578.9" y="1210" class="st0" width="25" height="25"/>
	<rect x="-1578.9" y="1165" class="st0" width="25" height="25"/>
	<rect x="-1578.9" y="815" class="st0" width="25" height="25"/>
	<rect x="-1623.9" y="860" class="st0" width="25" height="25"/>
	<rect x="-1578.9" y="510" class="st0" width="25" height="25"/>
	<rect x="-1623.9" y="510" class="st0" width="25" height="25"/>
	<rect x="-1623.9" y="160" class="st0" width="25" height="25"/>
	<rect x="-178.9" y="860" class="st0" width="25" height="25"/>
	<rect x="-223.9" y="860" class="st0" width="25" height="25"/>
	<rect x="-178.9" y="510" class="st0" width="25" height="25"/>
	<rect x="-223.9" y="160" class="st0" width="25" height="25"/>
	<rect x="-1273.9" y="1435" class="st0" width="25" height="25"/>
	<rect x="-1228.9" y="1435" class="st0" width="25" height="25"/>
	<rect x="-1273.9" y="1085" class="st0" width="25" height="25"/>
	<rect x="-1228.9" y="1085" class="st0" width="25" height="25"/>
	<rect x="-1273.9" y="1290" class="st0" width="25" height="25"/>
	<rect x="-1228.9" y="1290" class="st0" width="25" height="25"/>
	<rect x="-1228.9" y="940" class="st0" width="25" height="25"/>
	<rect x="-1273.9" y="940" class="st0" width="25" height="25"/>
	<rect x="-1228.9" y="590" class="st0" width="25" height="25"/>
	<rect x="-1228.9" y="385" class="st0" width="25" height="25"/>
	<rect x="-1273.9" y="240" class="st0" width="25" height="25"/>
	<rect x="-1273.9" y="35" class="st0" width="25" height="25"/>
	<rect x="-789.3" y="1560" class="st0" width="25" height="25"/>
	<rect x="-789.3" y="1515" class="st0" width="25" height="25"/>
	<rect x="-878.9" y="1649.6" class="st0" width="25" height="25"/>
	<rect x="-923.9" y="1649.6" class="st0" width="25" height="25"/>
	<rect x="-789.3" y="1210" class="st0" width="25" height="25"/>
	<rect x="-789.3" y="1165" class="st0" width="25" height="25"/>
	<rect x="-923.9" y="949.5" class="st0" width="25" height="25"/>
	<rect x="-878.9" y="949.5" class="st0" width="25" height="25"/>
	<rect x="-878.9" y="599.5" class="st0" width="25" height="25"/>
	<rect x="-788.9" y="510" class="st0" width="25" height="25"/>
	<rect x="-923.9" y="249.5" class="st0" width="25" height="25"/>
	<rect x="-788.9" y="115" class="st0" width="25" height="25"/>
	<rect x="-653.9" y="1515" class="st0" width="25" height="25"/>
	<rect x="-528.9" y="1640" class="st0" width="25" height="25"/>
	<rect x="-653.9" y="1560" class="st0" width="25" height="25"/>
	<rect x="-573.9" y="1640" class="st0" width="25" height="25"/>
	<rect x="-653.9" y="1165" class="st0" width="25" height="25"/>
	<rect x="-653.9" y="1210" class="st0" width="25" height="25"/>
	<rect x="-573.9" y="940" class="st0" width="25" height="25"/>
	<rect x="-528.9" y="940" class="st0" width="25" height="25"/>
	<rect x="-528.9" y="590" class="st0" width="25" height="25"/>
	<rect x="-653.9" y="465" class="st0" width="25" height="25"/>
	<rect x="-573.9" y="240" class="st0" width="25" height="25"/>
	<rect x="-653.9" y="160" class="st0" width="25" height="25"/>
	<rect x="-201.4" y="1535" class="st0" width="25" height="25"/>
</g>
<g id="Ebene_3">
	
		<image style="display:none;overflow:visible;" width="2363" height="2363" xlink:href="../../../../Bachelorthesis/Umsetzung/robocup-RescueMapEditor/RescueMapCreator/src/assets/tiles/Tile_24.png"  transform="matrix(0.127 0 0 0.127 -1103.1193 -350)">
	</image>
	<path d="M-738.9,1190h-50.5c-5-50.5-47.7-90-99.5-90c-55.2,0-100,44.8-100,100c0,51.9,39.5,94.5,90,99.5v50.5h20v-50.5
		c47.2-4.7,84.8-42.3,89.5-89.5h50.5V1190z M-888.9,1280c-44.1,0-80-35.9-80-80s35.9-80,80-80s80,35.9,80,80S-844.8,1280-888.9,1280
		z"/>
	<path d="M-738.9,1540h-50.5c-5-50.5-47.7-90-99.5-90c-55.2,0-100,44.8-100,100c0,51.9,39.5,94.5,90,99.5v50.5h20v-50.5
		c47.2-4.7,84.8-42.3,89.5-89.5h50.5V1540z M-888.9,1630c-44.1,0-80-35.9-80-80s35.9-80,80-80s80,35.9,80,80S-844.8,1630-888.9,1630
		z"/>
	<path d="M-738.9,840h-50.5c-5-50.5-47.7-90-99.5-90c-55.2,0-100,44.8-100,100c0,51.9,39.5,94.5,90,99.5v50.5h20v-50.5
		c47.2-4.7,84.8-42.3,89.5-89.5h50.5V840z M-888.9,930c-44.1,0-80-35.9-80-80s35.9-80,80-80s80,35.9,80,80S-844.8,930-888.9,930z"/>
	<path d="M-738.9,490h-50.5c-5-50.5-47.7-90-99.5-90c-55.2,0-100,44.8-100,100c0,51.9,39.5,94.5,90,99.5V650h20v-50.5
		c47.2-4.7,84.8-42.3,89.5-89.5h50.5V490z M-888.9,580c-44.1,0-80-35.9-80-80s35.9-80,80-80s80,35.9,80,80S-844.8,580-888.9,580z"/>
	<path d="M-738.9,140h-50.5c-5-50.5-47.7-90-99.5-90c-55.2,0-100,44.8-100,100c0,51.9,39.5,94.5,90,99.5V300h20v-50.5
		c47.2-4.7,84.8-42.3,89.5-89.5h50.5V140z M-888.9,230c-44.1,0-80-35.9-80-80s35.9-80,80-80s80,35.9,80,80S-844.8,230-888.9,230z"/>
	<path d="M-738.9-210h-50.5c-5-50.5-47.7-90-99.5-90c-55.2,0-100,44.8-100,100c0,51.9,39.5,94.5,90,99.5V-50h20v-50.5
		c47.2-4.7,84.8-42.3,89.5-89.5h50.5V-210z M-888.9-120c-44.1,0-80-35.9-80-80s35.9-80,80-80s80,35.9,80,80S-844.8-120-888.9-120z"
		/>
</g>
<g id="Ebene_2">
	
		<image style="display:none;overflow:visible;" width="2363" height="2363" xlink:href="../../../../Bachelorthesis/Umsetzung/robocup-RescueMapEditor/RescueMapCreator/src/assets/tiles/Tile_25.png"  transform="matrix(0.127 0 0 0.127 -1418.8624 -350)">
	</image>
	<polygon points="-1148.9,1520 -1148.9,1460 -1149,1460 -1168.9,1460 -1228.9,1460 -1228.9,1400 -1248.9,1400 -1248.9,1460 
		-1328.7,1460 -1328.7,1460.2 -1328.9,1460.2 -1328.9,1620 -1328.9,1639.8 -1328.9,1640 -1248.9,1640 -1248.9,1700 -1228.9,1700 
		-1228.9,1640 -1168.9,1640 -1148.9,1640 -1148.9,1620 -1148.9,1580 -1168.9,1580 -1168.9,1620 -1228.9,1620 -1248.9,1620 
		-1308.9,1620 -1308.9,1480 -1248.9,1480 -1228.9,1480 -1168.9,1480 -1168.9,1520 	"/>
	<polygon points="-1148.9,1170 -1148.9,1110 -1149,1110 -1168.9,1110 -1228.9,1110 -1228.9,1050 -1248.9,1050 -1248.9,1110 
		-1328.7,1110 -1328.7,1110.2 -1328.9,1110.2 -1328.9,1270 -1328.9,1289.8 -1328.9,1290 -1248.9,1290 -1248.9,1350 -1228.9,1350 
		-1228.9,1290 -1168.9,1290 -1148.9,1290 -1148.9,1270 -1148.9,1230 -1168.9,1230 -1168.9,1270 -1228.9,1270 -1248.9,1270 
		-1308.9,1270 -1308.9,1130 -1248.9,1130 -1228.9,1130 -1168.9,1130 -1168.9,1170 	"/>
	<polygon points="-1148.9,820 -1148.9,760 -1149,760 -1168.9,760 -1228.9,760 -1228.9,700 -1248.9,700 -1248.9,760 -1328.7,760 
		-1328.7,760.2 -1328.9,760.2 -1328.9,920 -1328.9,939.8 -1328.9,940 -1248.9,940 -1248.9,1000 -1228.9,1000 -1228.9,940 
		-1168.9,940 -1148.9,940 -1148.9,920 -1148.9,880 -1168.9,880 -1168.9,920 -1228.9,920 -1248.9,920 -1308.9,920 -1308.9,780 
		-1248.9,780 -1228.9,780 -1168.9,780 -1168.9,820 	"/>
	<polygon points="-1148.9,470 -1148.9,410 -1149,410 -1168.9,410 -1228.9,410 -1228.9,350 -1248.9,350 -1248.9,410 -1328.7,410 
		-1328.7,410.2 -1328.9,410.2 -1328.9,570 -1328.9,589.8 -1328.9,590 -1248.9,590 -1248.9,650 -1228.9,650 -1228.9,590 -1168.9,590 
		-1148.9,590 -1148.9,570 -1148.9,530 -1168.9,530 -1168.9,570 -1228.9,570 -1248.9,570 -1308.9,570 -1308.9,430 -1248.9,430 
		-1228.9,430 -1168.9,430 -1168.9,470 	"/>
	<polygon points="-1148.9,120 -1148.9,60 -1149,60 -1168.9,60 -1228.9,60 -1228.9,0 -1248.9,0 -1248.9,60 -1328.7,60 -1328.7,60.2 
		-1328.9,60.2 -1328.9,220 -1328.9,239.8 -1328.9,240 -1248.9,240 -1248.9,300 -1228.9,300 -1228.9,240 -1168.9,240 -1148.9,240 
		-1148.9,220 -1148.9,180 -1168.9,180 -1168.9,220 -1228.9,220 -1248.9,220 -1308.9,220 -1308.9,80 -1248.9,80 -1228.9,80 
		-1168.9,80 -1168.9,120 	"/>
	<polygon points="-1148.9,-230 -1148.9,-290 -1149,-290 -1168.9,-290 -1228.9,-290 -1228.9,-350 -1248.9,-350 -1248.9,-290 
		-1328.7,-290 -1328.7,-289.8 -1328.9,-289.8 -1328.9,-130 -1328.9,-110.2 -1328.9,-110 -1248.9,-110 -1248.9,-50 -1228.9,-50 
		-1228.9,-110 -1168.9,-110 -1148.9,-110 -1148.9,-130 -1148.9,-170 -1168.9,-170 -1168.9,-130 -1228.9,-130 -1248.9,-130 
		-1308.9,-130 -1308.9,-270 -1248.9,-270 -1228.9,-270 -1168.9,-270 -1168.9,-230 	"/>
</g>
<g id="Ebene_4">
	<polygon points="-448.9,1520 -448.9,1460 -449,1460 -468.9,1460 -628.7,1460 -628.7,1460.2 -628.9,1460.2 -628.9,1540 -688.9,1540 
		-688.9,1560 -628.9,1560 -628.9,1620 -628.9,1639.8 -628.9,1640 -548.9,1640 -548.9,1700 -528.9,1700 -528.9,1640 -468.9,1640 
		-448.9,1640 -448.9,1620 -448.9,1580 -468.9,1580 -468.9,1620 -528.9,1620 -548.9,1620 -608.9,1620 -608.9,1560 -608.9,1540 
		-608.9,1480 -468.9,1480 -468.9,1520 	"/>
	<polygon points="-448.9,1170 -448.9,1110 -449,1110 -468.9,1110 -628.7,1110 -628.7,1110.2 -628.9,1110.2 -628.9,1190 -688.9,1190 
		-688.9,1210 -628.9,1210 -628.9,1270 -628.9,1289.8 -628.9,1290 -548.9,1290 -548.9,1350 -528.9,1350 -528.9,1290 -468.9,1290 
		-448.9,1290 -448.9,1270 -448.9,1230 -468.9,1230 -468.9,1270 -528.9,1270 -548.9,1270 -608.9,1270 -608.9,1210 -608.9,1190 
		-608.9,1130 -468.9,1130 -468.9,1170 	"/>
	<polygon points="-448.9,820 -448.9,760 -449,760 -468.9,760 -628.7,760 -628.7,760.2 -628.9,760.2 -628.9,840 -688.9,840 
		-688.9,860 -628.9,860 -628.9,920 -628.9,939.8 -628.9,940 -548.9,940 -548.9,1000 -528.9,1000 -528.9,940 -468.9,940 -448.9,940 
		-448.9,920 -448.9,880 -468.9,880 -468.9,920 -528.9,920 -548.9,920 -608.9,920 -608.9,860 -608.9,840 -608.9,780 -468.9,780 
		-468.9,820 	"/>
	<polygon points="-448.9,470 -448.9,410 -449,410 -468.9,410 -628.7,410 -628.7,410.2 -628.9,410.2 -628.9,490 -688.9,490 
		-688.9,510 -628.9,510 -628.9,570 -628.9,589.8 -628.9,590 -548.9,590 -548.9,650 -528.9,650 -528.9,590 -468.9,590 -448.9,590 
		-448.9,570 -448.9,530 -468.9,530 -468.9,570 -528.9,570 -548.9,570 -608.9,570 -608.9,510 -608.9,490 -608.9,430 -468.9,430 
		-468.9,470 	"/>
	<polygon points="-448.9,120 -448.9,60 -449,60 -468.9,60 -628.7,60 -628.7,60.2 -628.9,60.2 -628.9,140 -688.9,140 -688.9,160 
		-628.9,160 -628.9,220 -628.9,239.8 -628.9,240 -548.9,240 -548.9,300 -528.9,300 -528.9,240 -468.9,240 -448.9,240 -448.9,220 
		-448.9,180 -468.9,180 -468.9,220 -528.9,220 -548.9,220 -608.9,220 -608.9,160 -608.9,140 -608.9,80 -468.9,80 -468.9,120 	"/>
	<polygon points="-448.9,-230 -448.9,-290 -449,-290 -468.9,-290 -628.7,-290 -628.7,-289.8 -628.9,-289.8 -628.9,-210 -688.9,-210 
		-688.9,-190 -628.9,-190 -628.9,-130 -628.9,-110.2 -628.9,-110 -548.9,-110 -548.9,-50 -528.9,-50 -528.9,-110 -468.9,-110 
		-448.9,-110 -448.9,-130 -448.9,-170 -468.9,-170 -468.9,-130 -528.9,-130 -548.9,-130 -608.9,-130 -608.9,-190 -608.9,-210 
		-608.9,-270 -468.9,-270 -468.9,-230 	"/>
</g>
</svg>
